<?xml version="1.0" encoding="utf-8"?>
<!-- Generator: Adobe Illustrator 27.0.0, SVG Export Plug-In . SVG Version: 6.00 Build 0)  -->
<svg version="1.1" id="Capa_1" xmlns="http://www.w3.org/2000/svg" xmlns:xlink="http://www.w3.org/1999/xlink" x="0px" y="0px"
	 viewBox="0 0 200 80" style="enable-background:new 0 0 200 80;" xml:space="preserve">
<style type="text/css">
	.st0{fill:#67B5CC;}
</style>
<g>
	<g>
		<polygon class="st0" points="42.4,22.9 55,44.5 62.6,44.5 42.2,9 8.1,71 46.2,71 46.2,64 19.8,64 		"/>
		<polygon class="st0" points="86.3,10.5 50.7,70.9 58.4,70.9 93.9,10.5 		"/>
	</g>
	<g>
		<path class="st0" d="M97,56.9h-3.4v-2.2H97v-3.5c0-1,0.1-1.8,0.3-2.6c0.2-0.8,0.5-1.5,0.9-2.1c0.4-0.6,1-1,1.7-1.4
			c0.7-0.3,1.6-0.5,2.7-0.5c0.3,0,0.7,0,1.1,0.1c0.4,0.1,0.7,0.2,0.9,0.3l-0.4,2.4c-0.6-0.2-1.2-0.3-1.8-0.3c-0.7,0-1.2,0.1-1.6,0.4
			c-0.4,0.2-0.7,0.6-0.9,1c-0.2,0.4-0.3,0.9-0.3,1.5c0,0.6-0.1,1.2-0.1,1.9v3h3.8v2.2h-3.8v13.5H97V56.9z"/>
		<path class="st0" d="M104.5,62.6c0-1.2,0.2-2.4,0.6-3.4c0.4-1,1-1.9,1.7-2.6c0.7-0.7,1.6-1.3,2.7-1.7c1-0.4,2.2-0.6,3.4-0.6
			c1.2,0,2.3,0.2,3.4,0.6c1,0.4,1.9,1,2.7,1.7c0.7,0.7,1.3,1.6,1.7,2.6c0.4,1,0.6,2.1,0.6,3.4c0,1.2-0.2,2.4-0.6,3.4
			c-0.4,1-1,1.9-1.7,2.6c-0.7,0.7-1.6,1.3-2.7,1.7c-1,0.4-2.2,0.6-3.4,0.6c-1.2,0-2.3-0.2-3.4-0.6c-1-0.4-1.9-1-2.7-1.7
			c-0.7-0.7-1.3-1.6-1.7-2.6C104.7,64.9,104.5,63.8,104.5,62.6z M107.3,62.6c0,0.8,0.1,1.6,0.4,2.3c0.3,0.7,0.6,1.3,1.1,1.8
			c0.5,0.5,1.1,0.9,1.8,1.2c0.7,0.3,1.5,0.5,2.3,0.5c0.9,0,1.6-0.2,2.3-0.5c0.7-0.3,1.3-0.7,1.8-1.2c0.5-0.5,0.9-1.1,1.1-1.8
			c0.3-0.7,0.4-1.5,0.4-2.3c0-0.8-0.1-1.6-0.4-2.3c-0.3-0.7-0.6-1.3-1.1-1.8c-0.5-0.5-1.1-0.9-1.8-1.2c-0.7-0.3-1.5-0.5-2.3-0.5
			c-0.9,0-1.6,0.2-2.3,0.5c-0.7,0.3-1.3,0.7-1.8,1.2c-0.5,0.5-0.9,1.1-1.1,1.8C107.4,61,107.3,61.7,107.3,62.6z"/>
		<path class="st0" d="M124.5,58.4c0-0.7,0-1.4-0.1-2c0-0.6-0.1-1.2-0.1-1.7h2.5c0,0.4,0,0.9,0,1.3c0,0.4,0,0.9,0,1.3h0.1
			c0.2-0.4,0.4-0.8,0.8-1.1c0.3-0.4,0.7-0.7,1.2-1c0.4-0.3,1-0.5,1.5-0.7c0.6-0.2,1.2-0.3,1.8-0.3c1,0,1.9,0.2,2.7,0.5
			c0.8,0.3,1.4,0.8,1.9,1.3c0.5,0.6,0.9,1.2,1.1,2c0.2,0.8,0.4,1.7,0.4,2.6v9.7h-2.6V61c0-1.3-0.3-2.4-0.9-3.1
			c-0.6-0.8-1.5-1.1-2.7-1.1c-0.9,0-1.6,0.1-2.2,0.4c-0.6,0.3-1.1,0.7-1.5,1.2c-0.4,0.5-0.7,1.2-0.9,1.9c-0.2,0.7-0.3,1.6-0.3,2.5
			v7.7h-2.6V58.4z"/>
		<path class="st0" d="M155.4,67.7L155.4,67.7c-0.6,0.9-1.3,1.7-2.4,2.3c-1.1,0.6-2.3,0.9-3.7,0.9c-1.1,0-2.1-0.2-3.1-0.6
			c-1-0.4-1.8-1-2.5-1.7c-0.7-0.7-1.3-1.6-1.7-2.6c-0.4-1-0.6-2.1-0.6-3.3c0-1.2,0.2-2.3,0.6-3.3c0.4-1,1-1.9,1.7-2.6
			c0.7-0.7,1.6-1.3,2.6-1.7c1-0.4,2.1-0.6,3.4-0.6c1.1,0,2.2,0.2,3.1,0.7c1,0.5,1.8,1.1,2.5,2h0.1V45h2.6v25.4h-2.6V67.7z
			 M155.4,62.6c0-0.8-0.1-1.6-0.4-2.3c-0.3-0.7-0.6-1.3-1.1-1.8c-0.5-0.5-1.1-0.9-1.8-1.2c-0.7-0.3-1.5-0.5-2.3-0.5
			c-0.9,0-1.6,0.2-2.3,0.5c-0.7,0.3-1.3,0.7-1.8,1.2c-0.5,0.5-0.9,1.1-1.1,1.8c-0.3,0.7-0.4,1.5-0.4,2.3c0,0.8,0.1,1.6,0.4,2.3
			c0.3,0.7,0.6,1.3,1.1,1.8c0.5,0.5,1.1,0.9,1.8,1.2c0.7,0.3,1.5,0.5,2.3,0.5c0.9,0,1.6-0.2,2.3-0.5c0.7-0.3,1.3-0.7,1.8-1.2
			c0.5-0.5,0.9-1.1,1.1-1.8C155.3,64.2,155.4,63.4,155.4,62.6z"/>
		<path class="st0" d="M161.2,62.6c0-1.2,0.2-2.4,0.6-3.4c0.4-1,1-1.9,1.7-2.6c0.7-0.7,1.6-1.3,2.7-1.7c1-0.4,2.2-0.6,3.4-0.6
			c1.2,0,2.3,0.2,3.4,0.6c1,0.4,1.9,1,2.7,1.7c0.7,0.7,1.3,1.6,1.7,2.6c0.4,1,0.6,2.1,0.6,3.4c0,1.2-0.2,2.4-0.6,3.4
			c-0.4,1-1,1.9-1.7,2.6c-0.7,0.7-1.6,1.3-2.7,1.7c-1,0.4-2.2,0.6-3.4,0.6c-1.2,0-2.3-0.2-3.4-0.6c-1-0.4-1.9-1-2.7-1.7
			c-0.7-0.7-1.3-1.6-1.7-2.6C161.4,64.9,161.2,63.8,161.2,62.6z M164,62.6c0,0.8,0.1,1.6,0.4,2.3c0.3,0.7,0.6,1.3,1.1,1.8
			c0.5,0.5,1.1,0.9,1.8,1.2c0.7,0.3,1.5,0.5,2.3,0.5c0.9,0,1.6-0.2,2.3-0.5c0.7-0.3,1.3-0.7,1.8-1.2c0.5-0.5,0.9-1.1,1.1-1.8
			c0.3-0.7,0.4-1.5,0.4-2.3c0-0.8-0.1-1.6-0.4-2.3c-0.3-0.7-0.6-1.3-1.1-1.8c-0.5-0.5-1.1-0.9-1.8-1.2c-0.7-0.3-1.5-0.5-2.3-0.5
			c-0.9,0-1.6,0.2-2.3,0.5c-0.7,0.3-1.3,0.7-1.8,1.2c-0.5,0.5-0.9,1.1-1.1,1.8C164.1,61,164,61.7,164,62.6z"/>
		<path class="st0" d="M181.5,66.3c0.5,0.7,1.1,1.2,1.7,1.5c0.6,0.4,1.4,0.6,2.3,0.6c0.4,0,0.8,0,1.2-0.1c0.4-0.1,0.8-0.2,1.1-0.4
			c0.3-0.2,0.6-0.5,0.8-0.8c0.2-0.3,0.3-0.7,0.3-1.1c0-0.4-0.1-0.8-0.3-1c-0.2-0.3-0.4-0.5-0.8-0.7c-0.3-0.2-0.7-0.3-1.1-0.5
			c-0.4-0.1-0.8-0.2-1.2-0.3c-0.7-0.2-1.4-0.3-2.1-0.5c-0.7-0.2-1.3-0.5-1.8-0.8c-0.5-0.3-0.9-0.7-1.2-1.3c-0.3-0.5-0.5-1.2-0.5-2
			c0-0.8,0.2-1.4,0.5-2c0.3-0.6,0.8-1.1,1.3-1.4c0.6-0.4,1.2-0.7,1.9-0.9c0.7-0.2,1.4-0.3,2.2-0.3c1.1,0,2.2,0.2,3.1,0.7
			c1,0.4,1.7,1.2,2.2,2.2l-2.2,1.4c-0.3-0.6-0.8-1-1.3-1.4c-0.5-0.3-1.2-0.5-2-0.5c-0.4,0-0.7,0-1.1,0.1c-0.4,0.1-0.7,0.2-1,0.4
			c-0.3,0.2-0.5,0.4-0.7,0.7c-0.2,0.3-0.3,0.6-0.3,1c0,0.3,0.1,0.6,0.3,0.9c0.2,0.2,0.5,0.4,0.9,0.6c0.4,0.2,0.8,0.3,1.3,0.5
			c0.5,0.1,1,0.2,1.5,0.3c0.7,0.1,1.4,0.3,2,0.5c0.6,0.2,1.2,0.5,1.6,0.9c0.5,0.4,0.8,0.8,1.1,1.3c0.3,0.5,0.4,1.2,0.4,2
			c0,0.9-0.2,1.7-0.5,2.3c-0.4,0.6-0.8,1.1-1.4,1.5c-0.6,0.4-1.3,0.7-2,0.9c-0.8,0.2-1.5,0.3-2.3,0.3c-1.3,0-2.5-0.2-3.5-0.6
			c-1-0.4-1.9-1.2-2.6-2.3L181.5,66.3z"/>
	</g>
</g>
</svg>
